<?xml version="1.0" encoding="utf-8"?>
<!-- Generator: Adobe Illustrator 21.0.2, SVG Export Plug-In . SVG Version: 6.00 Build 0)  -->
<svg version="1.1" id="Laag_1" xmlns="http://www.w3.org/2000/svg" xmlns:xlink="http://www.w3.org/1999/xlink" x="0px" y="0px"
	 viewBox="0 0 120 40" style="enable-background:new 0 0 120 40;" xml:space="preserve">
<style type="text/css">
	.st0{fill:#0078BE;}
	.st1{fill:#FFE236;}
</style>
<g>
	<path class="st0" d="M15.2,18.7h8.2l4.5-4.9H36l-6.9,7.7H3.5v-5.2h13.7L15.2,18.7z"/>
	<path class="st1" d="M36,13.8h-8.1l-4.5,4.9h-8.1l6.9-7.7h25.7v5.2H34L36,13.8z"/>
	<g>
		<path class="st0" d="M44.4,29.6c-0.4,0.2-0.8,0.3-1.3,0.3c-1.3,0-2.5-1-2.5-2.3c0-1.3,1.1-2.4,2.4-2.4c0.5,0,1,0.1,1.4,0.3v1.4
			c-0.3-0.2-0.7-0.3-1.2-0.3c-0.5,0-1,0.4-1,1c0,0.6,0.6,0.8,1,0.8c0.6,0,0.8,0,1.2-0.3V29.6 M47.7,28.5v1.1
			c-1.2,0.8-2.5,0.1-2.5-0.8v-2h-0.6v-1.3h0.6v-1.1l1.7-0.8v1.9h1v1.1H47v1.9C46.8,28.7,47.4,28.7,47.7,28.5 M35.6,28.5v1.1
			c-1.2,0.8-2.5,0.1-2.5-0.8v-2h-0.6v-1.3h0.6v-1.1l1.7-0.8v1.9h0.8v1.1h-0.8v1.9C34.7,28.7,35.3,28.7,35.6,28.5 M22.3,29.6
			c-0.4,0.2-0.8,0.3-1.3,0.3c-1.3,0-2.5-1-2.5-2.3c0-1.3,1.1-2.3,2.3-2.3c0.5,0,1,0.1,1.4,0.3V27c-0.3-0.2-0.7-0.3-1.2-0.3
			c-0.5,0-1,0.4-1,1c0,0.6,0.6,0.8,1,0.8c0.5,0,0.8,0,1.2-0.3L22.3,29.6L22.3,29.6 M18.2,26.9v2.9h-1.7v-2.5c0-0.8-1.2-0.8-1.2,0
			v2.5h-1.7v-4.5h1.7v0.4C16.6,24.7,18.2,25.6,18.2,26.9 M32.3,26.9v2.9h-1.7v-2.5c0-0.8-1.2-0.8-1.2,0v2.5h-1.7v-4.5h1.7v0.4
			C30.7,24.7,32.3,25.6,32.3,26.9"/>
		<path class="st0" d="M34.7,28.4v-1.9h0.8v-1.2h-0.8v-1.9l-1.7,0.8v1.1h-0.6v1.2h0.6v2.1c0,1,1.3,1.7,2.5,0.8v-1.1
			C35.3,28.7,34.7,28.7,34.7,28.4 M22.3,28.1c-0.4,0.3-0.7,0.3-1.2,0.3c-0.5,0-1-0.3-1-0.8c0-0.6,0.6-1,1-1c0.5,0,0.8,0.1,1.2,0.3
			v-1.4c-0.4-0.2-1-0.3-1.4-0.3c-1.3,0-2.3,1-2.3,2.3c0,1.3,1.2,2.3,2.5,2.3c0.5,0,1-0.1,1.3-0.3L22.3,28.1L22.3,28.1 M15.3,25.7
			v-0.4h-1.7v4.5h1.7v-2.5c0-0.8,1.2-0.8,1.2,0v2.5h1.7v-2.9C18.2,25.6,16.6,24.7,15.3,25.7 M29.4,25.7v-0.4h-1.7v4.5h1.7v-2.5
			c0-0.8,1.2-0.8,1.2,0v2.5h1.7v-2.9C32.3,25.6,30.7,24.7,29.4,25.7 M44.4,28.1c-0.4,0.3-0.7,0.3-1.2,0.3c-0.5,0-1-0.3-1-0.8
			c0-0.6,0.6-1,1-1c0.5,0,1,0.1,1.2,0.3v-1.4c-0.4-0.2-1-0.3-1.4-0.3c-1.3,0-2.4,1-2.4,2.3c0,1.3,1.2,2.3,2.5,2.3
			c0.5,0,1-0.1,1.3-0.3V28.1 M46.8,28.4v-1.9h0.8v-1.2h-1v-1.9L45,24.2v1.1h-0.6v1.2H45v2.1c0,1,1.3,1.7,2.5,0.8v-1.1
			C47.4,28.7,46.8,28.7,46.8,28.4 M25,25.2c-1.3,0-2.5,1-2.5,2.3c0,1.3,1.2,2.3,2.5,2.3c1.3,0,2.5-1,2.5-2.3
			C27.5,26.2,26.4,25.2,25,25.2 M25,28.5c-0.5,0-0.8-0.4-0.8-1c0-0.6,0.4-0.8,0.8-0.8c0.4,0,1,0.3,1,1C25.9,28.1,25.5,28.5,25,28.5
			 M36.4,25.5l-0.2,1.2c0.7-0.3,1.7-0.4,2.2-0.4c0.6,0,0.4,0.5-0.1,0.5c-0.8,0-2.2,0.3-2.3,1.5c-0.3,1.9,2.2,1.8,2.9,1.3l0.1,0.1
			h1.4v-3C40.2,25.2,38,25,36.4,25.5 M38.7,28.4c0,0.6-1.2,0.8-1.2,0.1c0-0.6,0.8-0.8,1.2-0.7V28.4 M9.4,25.5l-0.2,1.2
			c0.6-0.3,1.7-0.4,2.2-0.4c0.6,0,0.3,0.5-0.1,0.5c-0.8,0-2.2,0.3-2.3,1.5c-0.4,1.9,2.2,1.8,2.9,1.3v0.1h1.5v-3
			C13.3,25.2,11.1,25,9.4,25.5 M11.7,28.4c0,0.6-1.2,0.8-1.2,0.1c0-0.6,0.8-0.8,1.2-0.7V28.4"/>
	</g>
	<g>
		<path class="st0" d="M7.7,26.3C9.1,25,8,23.1,6.5,23.1h-3v6.7h3.2C8.6,29.7,9.4,27.4,7.7,26.3 M5.4,24.4c0,0,0.6-0.1,0.7,0
			c0.8,0.4,0.6,1.2,0,1.2H5.3L5.4,24.4 M6.1,28.5H5.4v-1.3H6C7,27,7.1,28.5,6.1,28.5"/>
	</g>
</g>
</svg>
